<?xml version="1.0" standalone="no"?>
<!DOCTYPE svg PUBLIC "-//W3C//DTD SVG 20010904//EN"
 "http://www.w3.org/TR/2001/REC-SVG-20010904/DTD/svg10.dtd">
<svg version="1.0" xmlns="http://www.w3.org/2000/svg"
 width="500.000000pt" height="500.000000pt" viewBox="0 0 500.000000 500.000000"
 preserveAspectRatio="xMidYMid meet">
<metadata>
Created by potrace 1.14, written by Peter Selinger 2001-2017
</metadata>
<g transform="translate(0.000000,500.000000) scale(0.100000,-0.100000)"
fill="#000000" stroke="none">
<path d="M0 2500 l0 -2500 2500 0 2500 0 0 2500 0 2500 -2500 0 -2500 0 0
-2500z m3563 1136 c-65 -63 -388 -375 -718 -694 l-600 -581 -747 0 c-412 -1
-748 1 -748 3 0 3 322 315 716 695 l716 691 750 0 749 0 -118 -114z m707
-1000 c-8 -8 -332 -321 -720 -695 l-705 -680 -750 -1 -750 0 60 59 c33 33 357
346 720 695 l660 636 750 0 c654 0 747 -2 735 -14z"/>
</g>
</svg>
